<?xml version="1.0" standalone="no"?>
<!DOCTYPE svg PUBLIC "-//W3C//DTD SVG 20010904//EN"
 "http://www.w3.org/TR/2001/REC-SVG-20010904/DTD/svg10.dtd">
<svg version="1.0" xmlns="http://www.w3.org/2000/svg"
 width="248.000000pt" height="248.000000pt" viewBox="0 0 248.000000 248.000000"
 preserveAspectRatio="xMidYMid meet">
<metadata>
Created by potrace 1.15, written by Peter Selinger 2001-2017
</metadata>
<g transform="translate(0.000000,248.000000) scale(0.100000,-0.100000)"
fill="#000000" stroke="none">
<path d="M995 2460 c-503 -106 -893 -505 -980 -1004 -19 -114 -19 -328 0 -442
54 -307 234 -596 489 -786 96 -71 267 -157 391 -195 88 -27 95 -28 345 -28
250 0 257 1 345 28 124 38 295 124 391 195 99 73 225 205 291 303 146 217 213
437 213 704 0 338 -113 622 -344 863 -181 189 -398 309 -655 362 -133 27 -357
27 -486 0z m989 -461 c25 -20 26 -23 26 -135 0 -101 -2 -116 -20 -134 -19 -19
-33 -20 -522 -20 -306 0 -517 -4 -539 -10 -56 -16 -101 -51 -129 -100 l-25
-45 0 -368 0 -369 24 -19 c22 -18 43 -19 370 -19 210 0 361 4 384 11 83 23
146 111 147 206 0 44 -4 55 -26 72 -25 20 -39 21 -290 21 l-263 0 -20 26 c-18
23 -21 41 -21 129 0 88 3 106 21 129 l20 26 425 0 c411 0 425 -1 444 -20 19
-19 20 -33 20 -263 0 -186 -4 -257 -15 -302 -42 -161 -188 -299 -353 -334 -35
-7 -234 -11 -593 -11 l-540 0 -25 25 -25 25 3 543 3 542 26 67 c52 133 130
224 247 286 110 59 126 60 698 61 513 1 522 1 548 -20z"/>
</g>
</svg>
